<svg width="2048" height="720" viewBox="0 0 2048 720" fill="none" xmlns="http://www.w3.org/2000/svg">
  <rect width="2048" height="720" fill="#020202"/>
  <ellipse cx="1548" cy="330" rx="560" ry="250" fill="url(#redGlow)" opacity="0.92"/>
  <path d="M934 612C1014 606 1109 583 1204 531C1288 485 1365 434 1456 390C1528 356 1602 335 1667 292C1732 249 1800 161 1860 75C1914 123 1967 158 2048 174V720H1019C1019 682 992 646 934 612Z" fill="url(#splashBase)"/>
  <path d="M1045 590C1121 555 1198 515 1266 467C1337 416 1405 360 1487 323C1578 282 1678 271 1765 214C1846 161 1926 82 1989 0H2048V720H1107C1098 682 1076 634 1045 590Z" fill="url(#splashHighlight)"/>
  <path d="M980 622C1067 618 1152 589 1235 543C1315 499 1393 436 1479 401C1565 367 1650 364 1739 316C1810 278 1874 206 1940 110" stroke="url(#rimLight)" stroke-width="9" stroke-linecap="round"/>
  <path d="M1502 360C1545 329 1580 291 1614 250C1670 183 1724 112 1791 52C1821 24 1854 4 1888 0" stroke="url(#rimLight)" stroke-width="7" stroke-linecap="round"/>
  <circle cx="1264" cy="332" r="23" fill="url(#bubble)"/>
  <circle cx="1328" cy="430" r="17" fill="url(#bubble)"/>
  <circle cx="1422" cy="288" r="29" fill="url(#bubble)"/>
  <circle cx="1510" cy="208" r="12" fill="url(#bubble)"/>
  <circle cx="1604" cy="378" r="18" fill="url(#bubble)"/>
  <circle cx="1662" cy="286" r="11" fill="url(#bubble)"/>
  <circle cx="1715" cy="198" r="14" fill="url(#bubble)"/>
  <circle cx="1774" cy="341" r="10" fill="url(#bubble)"/>
  <circle cx="1832" cy="219" r="18" fill="url(#bubble)"/>
  <circle cx="1886" cy="153" r="9" fill="url(#bubble)"/>
  <circle cx="1208" cy="506" r="13" fill="url(#bubble)" opacity="0.82"/>
  <circle cx="1110" cy="575" r="10" fill="url(#bubble)" opacity="0.72"/>
  <defs>
    <radialGradient id="redGlow" cx="0" cy="0" r="1" gradientUnits="userSpaceOnUse" gradientTransform="translate(1548 330) rotate(180) scale(560 250)">
      <stop offset="0" stop-color="#D51414"/>
      <stop offset="0.48" stop-color="#8A0909"/>
      <stop offset="1" stop-color="#220303" stop-opacity="0"/>
    </radialGradient>
    <linearGradient id="splashBase" x1="934" y1="390" x2="2048" y2="438" gradientUnits="userSpaceOnUse">
      <stop offset="0" stop-color="#3A0404" stop-opacity="0"/>
      <stop offset="0.18" stop-color="#780707" stop-opacity="0.66"/>
      <stop offset="0.46" stop-color="#BE100F"/>
      <stop offset="0.75" stop-color="#8E0909"/>
      <stop offset="1" stop-color="#530505"/>
    </linearGradient>
    <linearGradient id="splashHighlight" x1="1250" y1="248" x2="2048" y2="292" gradientUnits="userSpaceOnUse">
      <stop offset="0" stop-color="#7B0808" stop-opacity="0"/>
      <stop offset="0.22" stop-color="#CE170F"/>
      <stop offset="0.49" stop-color="#FF4C1D"/>
      <stop offset="0.77" stop-color="#B40E0E"/>
      <stop offset="1" stop-color="#710707"/>
    </linearGradient>
    <linearGradient id="rimLight" x1="980" y1="359" x2="1940" y2="206" gradientUnits="userSpaceOnUse">
      <stop offset="0" stop-color="#8A120C" stop-opacity="0.18"/>
      <stop offset="0.28" stop-color="#FF8A64"/>
      <stop offset="0.62" stop-color="#FFD1BF"/>
      <stop offset="1" stop-color="#B11A13"/>
    </linearGradient>
    <radialGradient id="bubble" cx="0" cy="0" r="1" gradientUnits="userSpaceOnUse" gradientTransform="translate(0 0) scale(1)">
      <stop offset="0" stop-color="#FFF6EF"/>
      <stop offset="0.22" stop-color="#FFC0AA"/>
      <stop offset="0.62" stop-color="#FF572A"/>
      <stop offset="1" stop-color="#7A0505"/>
    </radialGradient>
  </defs>
</svg>
